<svg width="133" height="30" viewBox="0 0 133 30" fill="none" xmlns="http://www.w3.org/2000/svg">
<path d="M28.3906 29H22.8047V9C22.8047 8.60938 22.7266 8.24479 22.5703 7.90625C22.4271 7.56771 22.2253 7.27474 21.9648 7.02734C21.7174 6.76693 21.4245 6.5651 21.0859 6.42188C20.7474 6.27865 20.3828 6.20703 19.9922 6.20703C19.6016 6.20703 19.237 6.27865 18.8984 6.42188C18.5599 6.5651 18.2604 6.76693 18 7.02734C17.7526 7.27474 17.5573 7.56771 17.4141 7.90625C17.2708 8.24479 17.1992 8.60938 17.1992 9V29H11.5938V9C11.5938 8.60938 11.5221 8.24479 11.3789 7.90625C11.2357 7.56771 11.0339 7.27474 10.7734 7.02734C10.526 6.76693 10.2331 6.5651 9.89453 6.42188C9.55599 6.27865 9.19141 6.20703 8.80078 6.20703C8.41016 6.20703 8.04557 6.27865 7.70703 6.42188C7.36849 6.5651 7.06901 6.76693 6.80859 7.02734C6.5612 7.27474 6.36589 7.56771 6.22266 7.90625C6.07943 8.24479 6.00781 8.60938 6.00781 9V29H0.402344V9C0.402344 7.84115 0.617188 6.75391 1.04688 5.73828C1.48958 4.70964 2.08854 3.81771 2.84375 3.0625C3.61198 2.29427 4.50391 1.69531 5.51953 1.26562C6.54818 0.822917 7.64193 0.601562 8.80078 0.601562C9.84245 0.601562 10.8451 0.790365 11.8086 1.16797C12.7721 1.53255 13.638 2.06641 14.4062 2.76953C15.1745 2.06641 16.0339 1.53255 16.9844 1.16797C17.9479 0.790365 18.9505 0.601562 19.9922 0.601562C21.151 0.601562 22.2383 0.822917 23.2539 1.26562C24.2826 1.69531 25.1745 2.29427 25.9297 3.0625C26.6979 3.81771 27.2969 4.70964 27.7266 5.73828C28.1693 6.75391 28.3906 7.84115 28.3906 9V29ZM52.6094 29H33.4102V0.992188H52.6094V6.59766H39.0156V12.2031H48.2148V17.8086H39.0156V23.3945H52.6094V29ZM62.1406 6.59766V17.8086H67.7461C68.5143 17.8086 69.237 17.6654 69.9141 17.3789C70.5911 17.0794 71.1836 16.6758 71.6914 16.168C72.1992 15.6602 72.5964 15.0677 72.8828 14.3906C73.1823 13.7005 73.332 12.9714 73.332 12.2031C73.332 11.4349 73.1823 10.7122 72.8828 10.0352C72.5964 9.34505 72.1992 8.74609 71.6914 8.23828C71.1836 7.73047 70.5911 7.33333 69.9141 7.04688C69.237 6.7474 68.5143 6.59766 67.7461 6.59766H62.1406ZM62.1406 29H56.5352V0.992188H67.7461C68.7747 0.992188 69.7643 1.12891 70.7148 1.40234C71.6654 1.66276 72.5508 2.04036 73.3711 2.53516C74.2044 3.01693 74.9596 3.60286 75.6367 4.29297C76.3268 4.97005 76.9128 5.72526 77.3945 6.55859C77.8893 7.39193 78.2669 8.28385 78.5273 9.23438C78.8008 10.1849 78.9375 11.1745 78.9375 12.2031C78.9375 13.1667 78.8138 14.1042 78.5664 15.0156C78.332 15.9271 77.987 16.793 77.5312 17.6133C77.0885 18.4336 76.5417 19.1888 75.8906 19.8789C75.2396 20.569 74.5104 21.168 73.7031 21.6758L76.8086 29H70.8516L68.4102 23.3555L62.1406 23.3945V29ZM105.031 29H99.0352L88.2344 10.5625V29H82.6289V0.992188H88.625L99.4258 19.4492V0.992188H105.031V29Z" fill="#303030"/>
<path d="M112.805 27.8047C112.805 28.0859 112.754 28.3516 112.652 28.6016C112.551 28.8438 112.41 29.0547 112.23 29.2344C112.051 29.4141 111.84 29.5547 111.598 29.6562C111.355 29.7656 111.094 29.8203 110.812 29.8203C110.539 29.8203 110.277 29.7656 110.027 29.6562C109.785 29.5547 109.57 29.4141 109.383 29.2344C109.203 29.0547 109.059 28.8438 108.949 28.6016C108.848 28.3516 108.797 28.0859 108.797 27.8047C108.797 27.5312 108.848 27.2734 108.949 27.0312C109.059 26.7891 109.203 26.5781 109.383 26.3984C109.57 26.2188 109.785 26.0781 110.027 25.9766C110.277 25.8672 110.539 25.8125 110.812 25.8125C111.094 25.8125 111.355 25.8672 111.598 25.9766C111.84 26.0781 112.051 26.2188 112.23 26.3984C112.41 26.5781 112.551 26.7891 112.652 27.0312C112.754 27.2734 112.805 27.5312 112.805 27.8047ZM118.969 13.0391C118.969 13.3359 118.91 13.6133 118.793 13.8711C118.684 14.1289 118.531 14.3555 118.336 14.5508C118.141 14.7383 117.91 14.8906 117.645 15.0078C117.387 15.1172 117.109 15.1719 116.812 15.1719C116.516 15.1719 116.234 15.1172 115.969 15.0078C115.711 14.8906 115.484 14.7383 115.289 14.5508C115.102 14.3555 114.949 14.1289 114.832 13.8711C114.723 13.6133 114.668 13.3359 114.668 13.0391C114.668 12.75 114.723 12.4766 114.832 12.2188C114.949 11.9531 115.102 11.7266 115.289 11.5391C115.484 11.3438 115.711 11.1914 115.969 11.082C116.234 10.9648 116.516 10.9062 116.812 10.9062C117.109 10.9062 117.387 10.9648 117.645 11.082C117.91 11.1914 118.141 11.3438 118.336 11.5391C118.531 11.7266 118.684 11.9531 118.793 12.2188C118.91 12.4766 118.969 12.75 118.969 13.0391ZM118.418 29H115.195V16.4492H118.418V29ZM132.996 22.6133C132.996 23.5508 132.828 24.4258 132.492 25.2383C132.156 26.043 131.699 26.7422 131.121 27.3359C130.543 27.9219 129.863 28.3867 129.082 28.7305C128.309 29.0664 127.477 29.2344 126.586 29.2344C125.703 29.2344 124.871 29.0664 124.09 28.7305C123.316 28.3867 122.637 27.9219 122.051 27.3359C121.473 26.7422 121.016 26.043 120.68 25.2383C120.344 24.4258 120.176 23.5508 120.176 22.6133C120.176 21.6602 120.344 20.7773 120.68 19.9648C121.016 19.1523 121.473 18.4531 122.051 17.8672C122.637 17.2734 123.316 16.8086 124.09 16.4727C124.871 16.1367 125.703 15.9688 126.586 15.9688C127.477 15.9688 128.309 16.1289 129.082 16.4492C129.863 16.7617 130.543 17.2109 131.121 17.7969C131.699 18.375 132.156 19.0742 132.492 19.8945C132.828 20.707 132.996 21.6133 132.996 22.6133ZM129.773 22.6133C129.773 22.0977 129.688 21.6328 129.516 21.2188C129.352 20.7969 129.125 20.4375 128.836 20.1406C128.547 19.8359 128.207 19.6055 127.816 19.4492C127.434 19.2852 127.023 19.2031 126.586 19.2031C126.148 19.2031 125.734 19.2852 125.344 19.4492C124.961 19.6055 124.625 19.8359 124.336 20.1406C124.055 20.4375 123.832 20.7969 123.668 21.2188C123.504 21.6328 123.422 22.0977 123.422 22.6133C123.422 23.0977 123.504 23.5469 123.668 23.9609C123.832 24.375 124.055 24.7344 124.336 25.0391C124.625 25.3438 124.961 25.5859 125.344 25.7656C125.734 25.9375 126.148 26.0234 126.586 26.0234C127.023 26.0234 127.434 25.9414 127.816 25.7773C128.207 25.6133 128.547 25.3828 128.836 25.0859C129.125 24.7891 129.352 24.4297 129.516 24.0078C129.688 23.5859 129.773 23.1211 129.773 22.6133Z" fill="#2566C4"/>
</svg>
